<svg xmlns="http://www.w3.org/2000/svg" xmlns:xlink="http://www.w3.org/1999/xlink" width="294" zoomAndPan="magnify" viewBox="0 0 220.5 110.249996" height="147" preserveAspectRatio="xMidYMid meet" version="1.0"><defs><clipPath id="d99c2e2ddb"><path d="M 66 38 L 219.507812 38 L 219.507812 70 L 66 70 Z M 66 38 " clip-rule="nonzero"/></clipPath><clipPath id="959228e1ed"><path d="M 2.789062 25.460938 L 59 25.460938 L 59 84.3125 L 2.789062 84.3125 Z M 2.789062 25.460938 " clip-rule="nonzero"/></clipPath><clipPath id="51f72d2932"><path d="M 30 25.460938 L 59 25.460938 L 59 84.3125 L 30 84.3125 Z M 30 25.460938 " clip-rule="nonzero"/></clipPath></defs><g clip-path="url(#d99c2e2ddb)"><path fill="#b52e31" d="M 66.621094 69.109375 L 66.621094 42.359375 L 70.046875 42.359375 L 86.320312 63.886719 L 86.320312 42.359375 L 89.578125 42.359375 L 89.578125 69.109375 L 86.152344 69.109375 L 69.878906 47.371094 L 69.878906 69.109375 Z M 116.082031 68.050781 C 113.925781 68.855469 111.601562 69.28125 109.148438 69.28125 C 99.511719 69.28125 94.691406 64.652344 94.691406 55.355469 C 94.691406 46.566406 99.339844 42.148438 108.640625 42.148438 C 111.304688 42.148438 113.796875 42.53125 116.082031 43.253906 L 116.082031 46.226562 C 113.796875 45.332031 111.429688 44.910156 109.023438 44.910156 C 101.75 44.910156 98.117188 48.390625 98.117188 55.269531 C 98.117188 62.699219 101.707031 66.394531 108.851562 66.394531 C 109.996094 66.394531 111.261719 66.222656 112.65625 65.925781 L 112.65625 56.96875 L 116.082031 56.96875 Z M 121.578125 58.792969 L 121.578125 42.359375 L 125 42.359375 L 125 58.792969 C 125 63.929688 127.539062 66.519531 132.652344 66.519531 C 137.726562 66.519531 140.304688 63.929688 140.304688 58.792969 L 140.304688 42.359375 L 143.726562 42.359375 L 143.726562 58.792969 C 143.726562 65.800781 140.050781 69.324219 132.652344 69.324219 C 125.253906 69.324219 121.578125 65.800781 121.578125 58.792969 Z M 153.28125 42.359375 L 153.28125 66.308594 L 167.230469 66.308594 L 167.230469 69.109375 L 149.855469 69.109375 L 149.855469 42.359375 Z M 172.175781 69.109375 L 168.582031 69.109375 L 181.816406 38.835938 L 195.046875 69.109375 L 191.242188 69.109375 L 187.816406 60.703125 L 179.023438 60.703125 L 179.953125 57.902344 L 186.675781 57.902344 L 181.6875 45.800781 Z M 198.722656 69.109375 L 198.722656 42.359375 L 210.09375 42.359375 C 215.167969 42.359375 217.703125 44.484375 217.703125 48.773438 C 217.703125 52.253906 215.210938 54.84375 210.265625 56.5 L 219.394531 69.109375 L 214.871094 69.109375 L 206.417969 57.09375 L 206.417969 54.84375 C 211.488281 54.039062 214.066406 52.085938 214.066406 48.941406 C 214.066406 46.480469 212.671875 45.25 209.839844 45.25 L 202.230469 45.25 L 202.230469 69.109375 Z M 198.722656 69.109375 " fill-opacity="1" fill-rule="evenodd"/></g><g clip-path="url(#959228e1ed)"><path fill="#e23237" d="M 2.960938 35.226562 L 30.226562 25.460938 L 58.210938 35.058594 L 53.6875 71.277344 L 30.226562 84.3125 L 7.144531 71.445312 Z M 2.960938 35.226562 " fill-opacity="1" fill-rule="evenodd"/></g><g clip-path="url(#51f72d2932)"><path fill="#b52e31" d="M 58.210938 35.058594 L 30.226562 25.460938 L 30.226562 84.3125 L 53.6875 71.277344 Z M 58.210938 35.058594 " fill-opacity="1" fill-rule="evenodd"/></g><path fill="#ffffff" d="M 30.269531 32.339844 L 13.277344 70.300781 L 19.617188 70.171875 L 23.039062 61.59375 L 38.214844 61.59375 L 41.9375 70.257812 L 47.980469 70.382812 Z M 30.3125 44.527344 L 36.058594 56.585938 L 25.28125 56.585938 Z M 30.3125 44.527344 " fill-opacity="1" fill-rule="evenodd"/></svg>