<svg xmlns="http://www.w3.org/2000/svg" xmlns:xlink="http://www.w3.org/1999/xlink" width="1678" zoomAndPan="magnify" viewBox="0 0 1258.5 273.749983" height="365" preserveAspectRatio="xMidYMid meet" version="1.0"><defs><g/><clipPath id="5766eaf409"><path d="M 53.152344 17.359375 L 298 17.359375 L 298 262.382812 L 53.152344 262.382812 Z M 53.152344 17.359375 " clip-rule="nonzero"/></clipPath><clipPath id="4989a3bb63"><path d="M 165 96.925781 L 226.992188 96.925781 L 226.992188 182.347656 L 165 182.347656 Z M 165 96.925781 " clip-rule="nonzero"/></clipPath><clipPath id="1303b7f8a2"><path d="M 124.335938 150 L 128 150 L 128 154 L 124.335938 154 Z M 124.335938 150 " clip-rule="nonzero"/></clipPath></defs><path stroke-linecap="butt" transform="matrix(0.749316, 0, 0, 0.749316, 70.802612, -23.594834)" fill="none" stroke-linejoin="miter" d="M 403.767043 85.089507 C 422.946002 85.089507 437.094329 90.776988 446.22245 102.157165 C 455.350572 113.479997 459.912026 128.613598 459.912026 147.557968 L 459.912026 169.9117 L 433.575493 169.9117 L 433.575493 146.171286 C 433.575493 134.79111 431.260881 125.980987 426.642083 119.746131 C 422.080629 113.448718 414.714532 110.300012 404.549006 110.300012 C 394.555512 110.300012 387.189415 113.448718 382.455929 119.746131 C 377.774574 125.980987 375.43911 134.79111 375.43911 146.171286 L 375.43911 277.431688 C 375.43911 288.811864 377.774574 297.648052 382.455929 303.945465 C 387.189415 310.180321 394.555512 313.297749 404.549006 313.297749 C 414.714532 313.297749 422.080629 310.180321 426.642083 303.945465 C 431.260881 297.648052 433.575493 288.811864 433.575493 277.431688 L 433.575493 245.115741 L 459.912026 245.115741 L 459.912026 276.045006 C 459.912026 294.932032 455.350572 310.065633 446.22245 321.44581 C 437.094329 332.820773 422.946002 338.513467 403.767043 338.513467 C 384.880016 338.513467 370.872443 332.820773 361.749535 321.44581 C 352.621413 310.065633 348.059959 294.932032 348.059959 276.045006 L 348.059959 147.557968 C 348.059959 138.085783 349.185987 129.505036 351.438042 121.826154 C 353.690097 114.142059 357.125523 107.583992 361.749535 102.157165 C 366.368333 96.725124 372.144437 92.539013 379.077847 89.593617 C 386.063388 86.590877 394.294858 85.089507 403.767043 85.089507 Z M 403.767043 85.089507 " stroke="#0a1130" stroke-width="4.879669" stroke-opacity="1" stroke-miterlimit="4"/><path stroke-linecap="butt" transform="matrix(0.749316, 0, 0, 0.749316, 70.802612, -23.594834)" fill="none" stroke-linejoin="miter" d="M 1310.140994 85.089507 C 1329.319954 85.089507 1343.473494 90.776988 1352.596402 102.157165 C 1361.724523 113.479997 1366.285977 128.613598 1366.285977 147.557968 L 1366.285977 168.869082 L 1339.949445 168.869082 L 1339.949445 146.171286 C 1339.949445 134.79111 1337.640046 125.980987 1333.016035 119.746131 C 1328.454581 113.448718 1321.088484 110.300012 1310.922958 110.300012 C 1300.929464 110.300012 1293.56858 113.448718 1288.829881 119.746131 C 1284.153739 125.980987 1281.813061 134.79111 1281.813061 146.171286 L 1281.813061 277.431688 C 1281.813061 288.811864 1284.153739 297.648052 1288.829881 303.945465 C 1293.56858 310.180321 1300.929464 313.297749 1310.922958 313.297749 C 1321.088484 313.297749 1328.454581 310.180321 1333.016035 303.945465 C 1337.640046 297.648052 1339.949445 288.811864 1339.949445 277.431688 L 1339.949445 227.787429 L 1314.389663 227.787429 L 1314.389663 202.920988 L 1366.285977 202.920988 L 1366.285977 276.045006 C 1366.285977 294.932032 1361.724523 310.065633 1352.596402 321.44581 C 1343.473494 332.820773 1329.319954 338.513467 1310.140994 338.513467 C 1291.253968 338.513467 1277.251607 332.820773 1268.123486 321.44581 C 1258.995365 310.065633 1254.433911 294.932032 1254.433911 276.045006 L 1254.433911 147.557968 C 1254.433911 138.085783 1255.559938 129.505036 1257.811993 121.826154 C 1260.064048 114.142059 1263.499475 107.583992 1268.123486 102.157165 C 1272.742284 96.725124 1278.518388 92.539013 1285.451798 89.593617 C 1292.442553 86.590877 1300.668809 85.089507 1310.140994 85.089507 Z M 1474.504519 197.634914 L 1474.504519 222.412732 L 1413.766804 222.412732 L 1413.766804 310.78504 L 1488.277504 310.78504 L 1488.277504 336.000758 L 1386.132212 336.000758 L 1386.132212 87.602216 L 1488.277504 87.602216 L 1488.277504 112.812721 L 1413.766804 112.812721 L 1413.766804 197.634914 Z M 1474.504519 197.634914 " stroke="#0a1130" stroke-width="4.879669" stroke-opacity="1" stroke-miterlimit="4"/><g fill="#0a1130" fill-opacity="1"><g transform="translate(322.584371, 228.175213)"><g><path d="M 50.796875 -188 C 65.148438 -188 75.738281 -183.742188 82.5625 -175.234375 C 89.394531 -166.734375 92.8125 -155.390625 92.8125 -141.203125 L 92.8125 -124.453125 L 73.125 -124.453125 L 73.125 -142.265625 C 73.125 -150.773438 71.394531 -157.378906 67.9375 -162.078125 C 64.476562 -166.773438 58.941406 -169.125 51.328125 -169.125 C 43.878906 -169.125 38.378906 -166.773438 34.828125 -162.078125 C 31.285156 -157.378906 29.515625 -150.773438 29.515625 -142.265625 L 29.515625 -43.875 C 29.515625 -35.363281 31.285156 -28.757812 34.828125 -24.0625 C 38.378906 -19.363281 43.878906 -17.015625 51.328125 -17.015625 C 58.941406 -17.015625 64.476562 -19.363281 67.9375 -24.0625 C 71.394531 -28.757812 73.125 -35.363281 73.125 -43.875 L 73.125 -68.078125 L 92.8125 -68.078125 L 92.8125 -44.9375 C 92.8125 -30.757812 89.394531 -19.414062 82.5625 -10.90625 C 75.738281 -2.394531 65.148438 1.859375 50.796875 1.859375 C 36.609375 1.859375 26.101562 -2.394531 19.28125 -10.90625 C 12.457031 -19.414062 9.046875 -30.757812 9.046875 -44.9375 L 9.046875 -141.203125 C 9.046875 -148.296875 9.882812 -154.722656 11.5625 -160.484375 C 13.25 -166.242188 15.820312 -171.160156 19.28125 -175.234375 C 22.738281 -179.316406 27.082031 -182.460938 32.3125 -184.671875 C 37.539062 -186.890625 43.703125 -188 50.796875 -188 Z M 50.796875 -188 "/></g></g></g><g fill="#0a1130" fill-opacity="1"><g transform="translate(418.848012, 228.175213)"><g/></g></g><g fill="#0a1130" fill-opacity="1"><g transform="translate(455.278515, 228.175213)"><g/></g></g><g fill="#0a1130" fill-opacity="1"><g transform="translate(491.709019, 228.175213)"><g/></g></g><g fill="#0a1130" fill-opacity="1"><g transform="translate(528.139517, 228.175213)"><g/></g></g><g fill="#0a1130" fill-opacity="1"><g transform="translate(564.570027, 228.175213)"><g/></g></g><g fill="#0a1130" fill-opacity="1"><g transform="translate(637.431047, 228.175213)"><g/></g></g><g fill="#0a1130" fill-opacity="1"><g transform="translate(673.861557, 228.175213)"><g/></g></g><g fill="#0a1130" fill-opacity="1"><g transform="translate(710.292067, 228.175213)"><g/></g></g><g fill="#0a1130" fill-opacity="1"><g transform="translate(746.722577, 228.175213)"><g/></g></g><g fill="#0a1130" fill-opacity="1"><g transform="translate(783.153086, 228.175213)"><g/></g></g><g fill="#0a1130" fill-opacity="1"><g transform="translate(819.583596, 228.175213)"><g/></g></g><g fill="#0a1130" fill-opacity="1"><g transform="translate(856.014083, 228.175213)"><g/></g></g><g fill="#0a1130" fill-opacity="1"><g transform="translate(892.44457, 228.175213)"><g/></g></g><g fill="#0a1130" fill-opacity="1"><g transform="translate(928.875056, 228.175213)"><g/></g></g><g fill="#0a1130" fill-opacity="1"><g transform="translate(965.305543, 228.175213)"><g/></g></g><g fill="#0a1130" fill-opacity="1"><g transform="translate(1001.745313, 228.175213)"><g><path d="M 50.796875 -188 C 65.148438 -188 75.738281 -183.742188 82.5625 -175.234375 C 89.394531 -166.734375 92.8125 -155.390625 92.8125 -141.203125 L 92.8125 -125.25 L 73.125 -125.25 L 73.125 -142.265625 C 73.125 -150.773438 71.394531 -157.378906 67.9375 -162.078125 C 64.476562 -166.773438 58.941406 -169.125 51.328125 -169.125 C 43.878906 -169.125 38.378906 -166.773438 34.828125 -162.078125 C 31.285156 -157.378906 29.515625 -150.773438 29.515625 -142.265625 L 29.515625 -43.875 C 29.515625 -35.363281 31.285156 -28.757812 34.828125 -24.0625 C 38.378906 -19.363281 43.878906 -17.015625 51.328125 -17.015625 C 58.941406 -17.015625 64.476562 -19.363281 67.9375 -24.0625 C 71.394531 -28.757812 73.125 -35.363281 73.125 -43.875 L 73.125 -81.109375 L 53.984375 -81.109375 L 53.984375 -99.71875 L 92.8125 -99.71875 L 92.8125 -44.9375 C 92.8125 -30.757812 89.394531 -19.414062 82.5625 -10.90625 C 75.738281 -2.394531 65.148438 1.859375 50.796875 1.859375 C 36.609375 1.859375 26.101562 -2.394531 19.28125 -10.90625 C 12.457031 -19.414062 9.046875 -30.757812 9.046875 -44.9375 L 9.046875 -141.203125 C 9.046875 -148.296875 9.882812 -154.722656 11.5625 -160.484375 C 13.25 -166.242188 15.820312 -171.160156 19.28125 -175.234375 C 22.738281 -179.316406 27.082031 -182.460938 32.3125 -184.671875 C 37.539062 -186.890625 43.703125 -188 50.796875 -188 Z M 50.796875 -188 "/></g></g></g><g fill="#0a1130" fill-opacity="1"><g transform="translate(1098.80485, 228.175213)"><g><path d="M 76.84375 -103.703125 L 76.84375 -85.09375 L 31.375 -85.09375 L 31.375 -18.875 L 87.21875 -18.875 L 87.21875 0 L 10.640625 0 L 10.640625 -186.140625 L 87.21875 -186.140625 L 87.21875 -167.265625 L 31.375 -167.265625 L 31.375 -103.703125 Z M 76.84375 -103.703125 "/></g></g></g><path stroke-linecap="butt" transform="matrix(6.378201, 0, 0, 6.378201, 104.533377, -12.889877)" fill="none" stroke-linejoin="miter" d="M 56.102622 25.724098 L 55.288693 30.000137 L 53.106578 30.000137 L 57.167651 8.791424 L 60.593015 8.791424 L 64.646739 30.000137 L 62.287017 30.000137 L 61.465738 25.724098 Z M 56.405779 23.697542 L 61.132572 23.697542 L 58.743453 11.454303 Z M 68.619621 30.000137 L 68.619621 8.791424 L 70.979343 8.791424 L 70.979343 27.847419 L 77.045538 27.847419 L 77.045538 30.000137 Z M 80.951052 30.000137 L 80.951052 8.791424 L 83.310774 8.791424 L 83.310774 27.847419 L 89.376968 27.847419 L 89.376968 30.000137 Z M 98.038673 8.791424 C 99.695929 8.791424 100.877321 9.180934 101.582236 9.960567 C 102.292664 10.734688 102.647265 11.910569 102.647265 13.48882 L 102.647265 14.487706 C 102.647265 15.617041 102.464759 16.53141 102.100358 17.232039 C 101.735346 17.927155 101.089224 18.41588 100.161994 18.696377 C 101.192726 18.982998 101.925201 19.520105 102.358807 20.309537 C 102.793025 21.093457 103.009828 22.072133 103.009828 23.246175 L 103.009828 25.028981 C 103.009828 26.626831 102.615418 27.854768 101.826599 28.712793 C 101.037167 29.570818 99.814129 30.000137 98.157485 30.000137 L 93.282482 30.000137 L 93.282482 8.791424 Z M 97.461756 17.786907 C 98.413484 17.786907 99.126362 17.597051 99.599776 17.21734 C 100.07319 16.832729 100.310203 16.083106 100.310203 14.968469 L 100.310203 13.725833 C 100.310203 12.779005 100.132597 12.078376 99.777383 11.62456 C 99.427068 11.170744 98.828105 10.944142 97.979878 10.944142 L 95.642204 10.944142 L 95.642204 17.786907 Z M 98.157485 27.847419 C 99.833727 27.847419 100.672154 26.888342 100.672154 24.969575 L 100.672154 23.090616 C 100.672154 21.897588 100.435753 21.073859 99.962339 20.620043 C 99.488925 20.166227 98.736851 19.939625 97.706119 19.939625 L 95.642204 19.939625 L 95.642204 27.847419 Z M 112.007149 8.791424 C 113.684003 8.791424 114.88928 9.205432 115.624205 10.03406 C 116.364029 10.862688 116.733942 12.063678 116.733942 13.63703 L 116.733942 15.367779 C 116.733942 16.536922 116.522038 17.4862 116.097619 18.215613 C 115.673812 18.940739 115.005643 19.443551 114.093111 19.724659 C 115.064437 20.010668 115.752817 20.533689 116.157026 21.293112 C 116.561234 22.047635 116.763339 22.999363 116.763339 24.148908 L 116.763339 27.455459 C 116.763339 27.919074 116.782937 28.367378 116.822745 28.801597 C 116.861941 29.235815 116.983204 29.635124 117.185308 30.000137 L 114.795577 30.000137 C 114.652879 29.69943 114.549377 29.371164 114.485071 29.01595 C 114.425665 28.661348 114.396268 28.130978 114.396268 27.425449 L 114.396268 24.089502 C 114.396268 22.900761 114.127407 22.079482 113.5903 21.626278 C 113.057479 21.167562 112.298056 20.937898 111.311419 20.937898 L 109.639465 20.937898 L 109.639465 30.000137 L 107.279743 30.000137 L 107.279743 8.791424 Z M 111.400223 18.78518 C 112.347051 18.78518 113.081976 18.590425 113.604998 18.200915 C 114.132307 17.806505 114.396268 17.032384 114.396268 15.878552 L 114.396268 13.851383 C 114.396268 12.880057 114.208862 12.152481 113.83405 11.669268 C 113.464138 11.186055 112.835164 10.944142 111.947742 10.944142 L 109.639465 10.944142 L 109.639465 18.78518 Z M 123.697969 8.791424 L 123.697969 30.000137 L 121.338247 30.000137 L 121.338247 8.791424 Z M 133.217699 8.791424 C 134.869443 8.791424 136.085132 9.262388 136.864152 10.204317 C 137.643785 11.141347 138.033295 12.428691 138.033295 14.065736 L 138.033295 24.755222 C 138.033295 26.392267 137.643785 27.677161 136.864152 28.609291 C 136.085132 29.536522 134.869443 30.000137 133.217699 30.000137 L 128.246543 30.000137 L 128.246543 8.791424 Z M 133.18034 27.847419 C 134.033466 27.847419 134.664889 27.590808 135.073997 27.078197 C 135.488617 26.560075 135.695621 25.817801 135.695621 24.851374 L 135.695621 13.940187 C 135.695621 12.97376 135.488617 12.233936 135.073997 11.720713 C 134.664889 11.203203 134.023667 10.944142 133.150943 10.944142 L 130.606265 10.944142 L 130.606265 27.847419 Z M 133.18034 27.847419 " stroke="#0a1130" stroke-width="1.515205" stroke-opacity="1" stroke-miterlimit="4"/><g fill="#0a1130" fill-opacity="1"><g transform="translate(439.388937, 178.456158)"><g><path d="M 23 -27.25 L 17.78125 0 L 3.859375 0 L 29.765625 -135.28125 L 51.609375 -135.28125 L 77.5 0 L 62.421875 0 L 57.203125 -27.25 Z M 24.9375 -40.203125 L 55.078125 -40.203125 L 39.8125 -118.28125 Z M 24.9375 -40.203125 "/></g></g></g><g fill="#0a1130" fill-opacity="1"><g transform="translate(534.465816, 178.456158)"><g><path d="M 7.734375 0 L 7.734375 -135.28125 L 22.8125 -135.28125 L 22.8125 -13.71875 L 61.453125 -13.71875 L 61.453125 0 Z M 7.734375 0 "/></g></g></g><g fill="#0a1130" fill-opacity="1"><g transform="translate(613.117387, 178.456158)"><g><path d="M 7.734375 0 L 7.734375 -135.28125 L 22.8125 -135.28125 L 22.8125 -13.71875 L 61.453125 -13.71875 L 61.453125 0 Z M 7.734375 0 "/></g></g></g><g fill="#0a1130" fill-opacity="1"><g transform="translate(691.768953, 178.456158)"><g><path d="M 38.078125 -135.28125 C 48.640625 -135.28125 56.175781 -132.800781 60.6875 -127.84375 C 65.195312 -122.882812 67.453125 -115.378906 67.453125 -105.328125 L 67.453125 -98.953125 C 67.453125 -91.734375 66.289062 -85.898438 63.96875 -81.453125 C 61.644531 -77.015625 57.523438 -73.894531 51.609375 -72.09375 C 58.171875 -70.28125 62.835938 -66.863281 65.609375 -61.84375 C 68.378906 -56.820312 69.765625 -50.570312 69.765625 -43.09375 L 69.765625 -31.703125 C 69.765625 -21.515625 67.25 -13.679688 62.21875 -8.203125 C 57.195312 -2.734375 49.40625 0 38.84375 0 L 7.734375 0 L 7.734375 -135.28125 Z M 34.40625 -77.890625 C 40.457031 -77.890625 44.992188 -79.113281 48.015625 -81.5625 C 51.046875 -84.007812 52.5625 -88.773438 52.5625 -95.859375 L 52.5625 -103.78125 C 52.5625 -109.832031 51.429688 -114.304688 49.171875 -117.203125 C 46.921875 -120.109375 43.09375 -121.5625 37.6875 -121.5625 L 22.8125 -121.5625 L 22.8125 -77.890625 Z M 38.84375 -13.71875 C 49.539062 -13.71875 54.890625 -19.835938 54.890625 -32.078125 L 54.890625 -44.0625 C 54.890625 -51.664062 53.375 -56.914062 50.34375 -59.8125 C 47.3125 -62.71875 42.515625 -64.171875 35.953125 -64.171875 L 22.8125 -64.171875 L 22.8125 -13.71875 Z M 38.84375 -13.71875 "/></g></g></g><g fill="#0a1130" fill-opacity="1"><g transform="translate(781.048659, 178.456158)"><g><path d="M 37.875 -135.28125 C 48.570312 -135.28125 56.269531 -132.640625 60.96875 -127.359375 C 65.675781 -122.078125 68.03125 -114.410156 68.03125 -104.359375 L 68.03125 -93.34375 C 68.03125 -85.875 66.675781 -79.816406 63.96875 -75.171875 C 61.257812 -70.535156 57.007812 -67.316406 51.21875 -65.515625 C 57.394531 -63.710938 61.769531 -60.394531 64.34375 -55.5625 C 66.925781 -50.726562 68.21875 -44.640625 68.21875 -37.296875 L 68.21875 -16.234375 C 68.21875 -13.273438 68.347656 -10.410156 68.609375 -7.640625 C 68.867188 -4.867188 69.640625 -2.320312 70.921875 0 L 55.65625 0 C 54.757812 -1.9375 54.113281 -4.03125 53.71875 -6.28125 C 53.332031 -8.53125 53.140625 -11.910156 53.140625 -16.421875 L 53.140625 -37.6875 C 53.140625 -45.289062 51.429688 -50.539062 48.015625 -53.4375 C 44.609375 -56.332031 39.75 -57.78125 33.4375 -57.78125 L 22.8125 -57.78125 L 22.8125 0 L 7.734375 0 L 7.734375 -135.28125 Z M 34.015625 -71.515625 C 40.066406 -71.515625 44.765625 -72.769531 48.109375 -75.28125 C 51.460938 -77.789062 53.140625 -82.71875 53.140625 -90.0625 L 53.140625 -103.015625 C 53.140625 -109.191406 51.945312 -113.828125 49.5625 -116.921875 C 47.1875 -120.015625 43.164062 -121.5625 37.5 -121.5625 L 22.8125 -121.5625 L 22.8125 -71.515625 Z M 34.015625 -71.515625 "/></g></g></g><g fill="#0a1130" fill-opacity="1"><g transform="translate(870.714838, 178.456158)"><g><path d="M 22.8125 -135.28125 L 22.8125 0 L 7.734375 0 L 7.734375 -135.28125 Z M 22.8125 -135.28125 "/></g></g></g><g fill="#0a1130" fill-opacity="1"><g transform="translate(914.776601, 178.456158)"><g><path d="M 39.421875 -135.28125 C 49.992188 -135.28125 57.757812 -132.285156 62.71875 -126.296875 C 67.675781 -120.304688 70.15625 -112.09375 70.15625 -101.65625 L 70.15625 -33.4375 C 70.15625 -23 67.675781 -14.816406 62.71875 -8.890625 C 57.757812 -2.960938 49.992188 0 39.421875 0 L 7.734375 0 L 7.734375 -135.28125 Z M 39.234375 -13.71875 C 44.640625 -13.71875 48.664062 -15.359375 51.3125 -18.640625 C 53.957031 -21.929688 55.28125 -26.671875 55.28125 -32.859375 L 55.28125 -102.4375 C 55.28125 -108.613281 53.957031 -113.34375 51.3125 -116.625 C 48.664062 -119.914062 44.578125 -121.5625 39.046875 -121.5625 L 22.8125 -121.5625 L 22.8125 -13.71875 Z M 39.234375 -13.71875 "/></g></g></g><g clip-path="url(#5766eaf409)"><path fill="#0a1130" d="M 175.535156 17.359375 C 107.890625 17.359375 53.152344 72.097656 53.152344 139.742188 C 53.152344 207.386719 107.890625 262.125 175.535156 262.125 C 243.179688 262.125 297.917969 207.386719 297.917969 139.742188 C 297.917969 72.097656 242.730469 17.359375 175.535156 17.359375 Z M 175.535156 239.878906 C 119.90625 239.878906 74.960938 194.929688 74.960938 139.742188 C 74.957031 84.113281 119.90625 39.167969 175.535156 39.167969 C 231.164062 39.164062 275.671875 84.113281 275.671875 139.742188 C 275.671875 194.929688 230.722656 239.878906 175.535156 239.878906 Z M 162.1875 173.121094 L 126.136719 139.742188 L 162.1875 105.917969 L 162.1875 74.320312 L 93.203125 139.742188 L 162.1875 204.71875 Z M 188.441406 74.324219 L 188.441406 105.921875 L 224.488281 139.746094 L 188.441406 173.121094 L 188.441406 204.722656 L 257.417969 139.746094 Z M 188.441406 74.324219 " fill-opacity="1" fill-rule="nonzero"/></g><g clip-path="url(#4989a3bb63)"><path fill="#0a1130" d="M 188.3125 114.027344 C 194.332031 114.027344 199.878906 115.949219 204.335938 119.183594 L 226.710938 119.183594 C 219.273438 105.921875 204.867188 96.925781 188.3125 96.925781 C 181.367188 96.925781 174.789062 98.515625 168.960938 101.335938 L 178.179688 101.335938 L 178.179688 115.949219 C 181.308594 114.714844 184.726562 114.027344 188.3125 114.027344 Z M 204.0625 160.488281 C 199.644531 163.617188 194.203125 165.457031 188.3125 165.457031 C 186.257812 165.457031 184.246094 165.234375 182.316406 164.800781 L 182.316406 170.40625 L 170.507812 170.40625 L 170.507812 176.101562 L 165.207031 176.101562 C 171.910156 180.1875 179.828125 182.558594 188.3125 182.558594 C 204.789062 182.558594 219.125 173.652344 226.59375 160.488281 Z M 204.0625 160.488281 " fill-opacity="1" fill-rule="evenodd"/></g><path fill="#ffffff" d="M 125.144531 114.617188 L 128.59375 114.617188 L 128.59375 118.242188 L 125.144531 118.242188 Z M 125.144531 114.617188 " fill-opacity="1" fill-rule="evenodd"/><path fill="#0a1130" d="M 131.289062 119.515625 L 137.382812 119.515625 L 137.382812 125.914062 L 131.289062 125.914062 Z M 131.289062 119.515625 " fill-opacity="1" fill-rule="evenodd"/><path fill="#0a1130" d="M 148.554688 119.269531 L 158.511719 119.269531 L 158.511719 129.1875 L 148.554688 129.1875 Z M 148.554688 119.269531 " fill-opacity="1" fill-rule="evenodd"/><path fill="#0a1130" d="M 159.445312 106.058594 L 172.476562 106.058594 L 172.476562 119.046875 L 159.445312 119.046875 Z M 159.445312 106.058594 " fill-opacity="1" fill-rule="evenodd"/><path fill="#0a1130" d="M 153.101562 141.988281 L 166.136719 141.988281 L 166.136719 154.972656 L 153.101562 154.972656 Z M 153.101562 141.988281 " fill-opacity="1" fill-rule="evenodd"/><path fill="#0a1130" d="M 142.441406 139.292969 L 150.761719 139.292969 L 150.761719 147.582031 L 142.441406 147.582031 Z M 142.441406 139.292969 " fill-opacity="1" fill-rule="evenodd"/><path fill="#0a1130" d="M 128.152344 139.878906 L 135.257812 139.878906 L 135.257812 146.957031 L 128.152344 146.957031 Z M 128.152344 139.878906 " fill-opacity="1" fill-rule="evenodd"/><path fill="#ffffff" d="M 136.019531 147.660156 L 141.449219 147.660156 L 141.449219 153.0625 L 136.019531 153.0625 Z M 136.019531 147.660156 " fill-opacity="1" fill-rule="evenodd"/><path fill="#ffffff" d="M 131.738281 153.355469 L 135.707031 153.355469 L 135.707031 157.304688 L 131.738281 157.304688 Z M 131.738281 153.355469 " fill-opacity="1" fill-rule="evenodd"/><g clip-path="url(#1303b7f8a2)"><path fill="#ffffff" d="M 124.367188 150.808594 L 127.042969 150.808594 L 127.042969 153.472656 L 124.367188 153.472656 Z M 124.367188 150.808594 " fill-opacity="1" fill-rule="evenodd"/></g><path fill="#ffffff" d="M 169.949219 150.171875 L 173.78125 150.171875 L 173.78125 153.992188 L 169.949219 153.992188 Z M 169.949219 150.171875 " fill-opacity="1" fill-rule="evenodd"/><path fill="#ffffff" d="M 165.8125 155.550781 L 171.644531 155.550781 L 171.644531 161.351562 L 165.8125 161.351562 Z M 165.8125 155.550781 " fill-opacity="1" fill-rule="evenodd"/><path fill="#0a1130" d="M 155.464844 162 L 164.992188 162 L 164.992188 171.484375 L 155.464844 171.484375 Z M 155.464844 162 " fill-opacity="1" fill-rule="evenodd"/><path fill="#ffffff" d="M 146.761719 155.207031 L 152.679688 155.207031 L 152.679688 161.097656 L 146.761719 161.097656 Z M 146.761719 155.207031 " fill-opacity="1" fill-rule="evenodd"/><path fill="#ffffff" d="M 142.382812 161.734375 L 146.417969 161.734375 L 146.417969 165.753906 L 142.382812 165.753906 Z M 142.382812 161.734375 " fill-opacity="1" fill-rule="evenodd"/><path fill="#ffffff" d="M 146.714844 167.320312 L 149.386719 167.320312 L 149.386719 169.984375 L 146.714844 169.984375 Z M 146.714844 167.320312 " fill-opacity="1" fill-rule="evenodd"/><path fill="#ffffff" d="M 142 171.042969 L 144.675781 171.042969 L 144.675781 173.710938 L 142 173.710938 Z M 142 171.042969 " fill-opacity="1" fill-rule="evenodd"/><path fill="#ffffff" d="M 172.851562 162.144531 L 176.722656 162.144531 L 176.722656 165.996094 L 172.851562 165.996094 Z M 172.851562 162.144531 " fill-opacity="1" fill-rule="evenodd"/><path fill="#ffffff" d="M 151.515625 133.433594 L 156.945312 133.433594 L 156.945312 138.832031 L 151.515625 138.832031 Z M 151.515625 133.433594 " fill-opacity="1" fill-rule="evenodd"/><path fill="#ffffff" d="M 159.042969 129.480469 L 165.15625 129.480469 L 165.15625 135.566406 L 159.042969 135.566406 Z M 159.042969 129.480469 " fill-opacity="1" fill-rule="evenodd"/><path fill="#0a1130" d="M 142.546875 129.460938 L 148.339844 129.460938 L 148.339844 135.226562 L 142.546875 135.226562 Z M 142.546875 129.460938 " fill-opacity="1" fill-rule="evenodd"/><path fill="#0a1130" d="M 141.324219 111.929688 L 147.3125 111.929688 L 147.3125 117.890625 L 141.324219 117.890625 Z M 141.324219 111.929688 " fill-opacity="1" fill-rule="evenodd"/><path fill="#ffffff" d="M 136.148438 103.777344 L 141.402344 103.777344 L 141.402344 109.011719 L 136.148438 109.011719 Z M 136.148438 103.777344 " fill-opacity="1" fill-rule="evenodd"/><path fill="#ffffff" d="M 152.859375 99.375 L 158.109375 99.375 L 158.109375 104.609375 L 152.859375 104.609375 Z M 152.859375 99.375 " fill-opacity="1" fill-rule="evenodd"/><path fill="#ffffff" d="M 152.574219 107.03125 L 156.789062 107.03125 L 156.789062 111.226562 L 152.574219 111.226562 Z M 152.574219 107.03125 " fill-opacity="1" fill-rule="evenodd"/><path fill="#ffffff" d="M 127.691406 126.570312 L 131.09375 126.570312 L 131.09375 129.960938 L 127.691406 129.960938 Z M 127.691406 126.570312 " fill-opacity="1" fill-rule="evenodd"/><path fill="#ffffff" d="M 139.117188 125.964844 L 142.285156 125.964844 L 142.285156 129.121094 L 139.117188 129.121094 Z M 139.117188 125.964844 " fill-opacity="1" fill-rule="evenodd"/><path stroke-linecap="butt" transform="matrix(3.324033, 0, 0, 3.324033, 211.638019, 185.66474)" fill="none" stroke-linejoin="miter" d="M 77.859425 12.000467 L 75.791154 12.000467 L 74.631277 7.499628 C 74.587797 7.339807 74.514937 7.008414 74.411524 6.506623 C 74.30811 6.004832 74.248177 5.667563 74.2329 5.495991 C 74.209397 5.707518 74.15064 6.045963 74.056627 6.512499 C 73.962615 6.979035 73.890931 7.312778 73.840399 7.511379 L 72.685223 12.000467 L 70.622828 12.000467 L 68.437042 3.433596 L 70.224451 3.433596 L 71.320869 8.109533 C 71.511244 8.972096 71.649912 9.720669 71.736874 10.354077 C 71.759202 10.130797 71.813259 9.786477 71.89787 9.318766 C 71.981306 8.85223 72.060041 8.490283 72.135251 8.232924 L 73.383264 3.433596 L 75.100164 3.433596 L 76.348177 8.232924 C 76.402234 8.446802 76.470393 8.775845 76.552654 9.216528 C 76.634915 9.658386 76.697198 10.036785 76.740679 10.354077 C 76.779459 10.048537 76.841742 9.668962 76.927528 9.214177 C 77.013314 8.758218 77.09205 8.390395 77.162559 8.109533 L 78.251926 3.433596 L 80.039335 3.433596 Z M 87.995127 12.000467 L 83.060656 12.000467 L 83.060656 3.433596 L 87.995127 3.433596 L 87.995127 4.92134 L 84.877444 4.92134 L 84.877444 6.802762 L 87.777723 6.802762 L 87.777723 8.290506 L 84.877444 8.290506 L 84.877444 10.499796 L 87.995127 10.499796 Z M 91.72624 3.433596 L 94.391489 3.433596 C 95.606598 3.433596 96.489138 3.606343 97.037935 3.951839 C 97.586732 4.297334 97.860543 4.847306 97.860543 5.601755 C 97.860543 6.112946 97.740677 6.533652 97.499771 6.861519 C 97.260039 7.189387 96.940398 7.386813 96.54202 7.452622 L 96.54202 7.511379 C 97.084941 7.63242 97.477443 7.859225 97.717174 8.191794 C 97.956906 8.523187 98.077946 8.965045 98.077946 9.516192 C 98.077946 10.296494 97.794734 10.906399 97.230661 11.343556 C 96.666587 11.780713 95.899211 12.000467 94.930885 12.000467 L 91.72624 12.000467 Z M 93.541853 6.826265 L 94.597141 6.826265 C 95.08953 6.826265 95.445602 6.74988 95.666531 6.59711 C 95.88746 6.445515 95.997924 6.192857 95.997924 5.841486 C 95.997924 5.513618 95.876883 5.278587 95.637152 5.135218 C 95.396245 4.993025 95.016671 4.92134 94.497253 4.92134 L 93.541853 4.92134 Z M 93.541853 8.267003 L 93.541853 10.499796 L 94.726408 10.499796 C 95.225848 10.499796 95.594846 10.404608 95.833403 10.213058 C 96.071959 10.021508 96.190649 9.728895 96.190649 9.334043 C 96.190649 8.623075 95.682983 8.267003 94.66765 8.267003 Z M 113.901393 7.634771 C 113.901393 9.044955 113.49949 10.124922 112.69686 10.87467 C 111.89423 11.624418 110.735528 12.000467 109.21958 12.000467 L 106.794062 12.000467 L 106.794062 3.433596 L 109.482814 3.433596 C 110.881247 3.433596 111.967089 3.802594 112.740341 4.540591 C 113.514767 5.279762 113.901393 6.310372 113.901393 7.634771 Z M 112.014096 7.681777 C 112.014096 5.841486 111.202064 4.92134 109.576827 4.92134 L 108.609675 4.92134 L 108.609675 10.499796 L 109.388802 10.499796 C 111.139781 10.499796 112.014096 9.560848 112.014096 7.681777 Z M 122.55405 12.000467 L 117.620754 12.000467 L 117.620754 3.433596 L 122.55405 3.433596 L 122.55405 4.92134 L 119.436367 4.92134 L 119.436367 6.802762 L 122.336647 6.802762 L 122.336647 8.290506 L 119.436367 8.290506 L 119.436367 10.499796 L 122.55405 10.499796 Z M 131.34185 9.620781 C 131.34185 10.394032 131.063339 11.003937 130.506316 11.44932 C 129.950468 11.894703 129.176042 12.116807 128.183037 12.116807 C 127.269942 12.116807 126.461437 11.945235 125.757519 11.60209 L 125.757519 9.914569 C 126.335695 10.171928 126.824559 10.354077 127.225287 10.458665 C 127.626014 10.564429 127.992662 10.617311 128.324055 10.617311 C 128.722433 10.617311 129.027973 10.540926 129.240675 10.388156 C 129.454553 10.236561 129.560317 10.009756 129.560317 9.708917 C 129.560317 9.54087 129.513311 9.391626 129.419299 9.261184 C 129.326462 9.129566 129.188969 9.003825 129.00682 8.882784 C 128.824671 8.761743 128.454497 8.567843 127.896299 8.302258 C 127.373356 8.056651 126.980855 7.820445 126.718795 7.59364 C 126.456736 7.366836 126.247559 7.103601 126.091263 6.802762 C 125.934968 6.501922 125.857408 6.150551 125.857408 5.747474 C 125.857408 4.990675 126.114766 4.394872 126.628308 3.96124 C 127.141851 3.527608 127.851644 3.310205 128.757687 3.310205 C 129.20307 3.310205 129.627301 3.363087 130.032729 3.46885 C 130.436982 3.574614 130.858862 3.722684 131.30072 3.914234 L 130.714318 5.325593 C 130.257183 5.138744 129.879959 5.008302 129.58147 4.933092 C 129.281806 4.859057 128.988017 4.822628 128.698929 4.822628 C 128.355785 4.822628 128.091375 4.902538 127.908051 5.062359 C 127.724727 5.22218 127.633065 5.431357 127.633065 5.689891 C 127.633065 5.849712 127.669495 5.989555 127.743529 6.108246 C 127.818739 6.228112 127.936255 6.343277 128.098426 6.453741 C 128.260597 6.565381 128.644872 6.765157 129.250077 7.054245 C 130.050356 7.437345 130.599153 7.82162 130.896467 8.205895 C 131.193781 8.591346 131.34185 9.062583 131.34185 9.620781 Z M 134.837933 12.000467 L 134.837933 3.433596 L 136.654721 3.433596 L 136.654721 12.000467 Z M 144.007658 7.189387 L 147.405028 7.189387 L 147.405028 11.630294 C 146.855056 11.810092 146.335638 11.937009 145.850299 12.008693 C 145.363786 12.081553 144.866696 12.116807 144.359029 12.116807 C 143.065185 12.116807 142.078056 11.737233 141.396466 10.978083 C 140.714877 10.217759 140.374083 9.127216 140.374083 7.70528 C 140.374083 6.322124 140.770109 5.244508 141.560988 4.471257 C 142.351867 3.69683 143.448285 3.310205 144.850244 3.310205 C 145.729259 3.310205 146.57772 3.486478 147.393276 3.837849 L 146.790423 5.291514 C 146.165241 4.978923 145.515381 4.822628 144.839667 4.822628 C 144.053489 4.822628 143.424782 5.085862 142.95237 5.613506 C 142.479958 6.14115 142.243752 6.849768 142.243752 7.740534 C 142.243752 8.670081 142.434127 9.379874 142.814877 9.869913 C 143.195627 10.359952 143.749124 10.605559 144.475369 10.605559 C 144.854944 10.605559 145.239219 10.566779 145.630546 10.488044 L 145.630546 8.700635 L 144.007658 8.700635 Z M 158.988519 12.000467 L 156.679342 12.000467 L 152.952929 5.519494 L 152.900047 5.519494 C 152.974082 6.664094 153.011687 7.480825 153.011687 7.968514 L 153.011687 12.000467 L 151.388799 12.000467 L 151.388799 3.433596 L 153.679174 3.433596 L 157.400886 9.849936 L 157.440842 9.849936 C 157.383259 8.73589 157.35388 7.949712 157.35388 7.487876 L 157.35388 3.433596 L 158.988519 3.433596 Z M 173.206705 9.620781 C 173.206705 10.394032 172.928194 11.003937 172.371171 11.44932 C 171.814148 11.894703 171.039722 12.116807 170.047892 12.116807 C 169.133622 12.116807 168.325116 11.945235 167.622374 11.60209 L 167.622374 9.914569 C 168.20055 10.171928 168.689414 10.354077 169.090141 10.458665 C 169.490869 10.564429 169.856342 10.617311 170.18891 10.617311 C 170.587287 10.617311 170.892827 10.540926 171.10553 10.388156 C 171.318233 10.236561 171.425172 10.009756 171.425172 9.708917 C 171.425172 9.54087 171.378166 9.391626 171.284154 9.261184 C 171.190141 9.129566 171.052648 9.003825 170.871675 8.882784 C 170.689526 8.761743 170.319352 8.567843 169.761154 8.302258 C 169.237036 8.056651 168.844534 7.820445 168.58365 7.59364 C 168.321591 7.366836 168.112413 7.103601 167.956118 6.802762 C 167.799822 6.501922 167.722262 6.150551 167.722262 5.747474 C 167.722262 4.990675 167.978446 4.394872 168.491988 3.96124 C 169.00553 3.527608 169.716498 3.310205 170.622542 3.310205 C 171.067925 3.310205 171.492156 3.363087 171.896409 3.46885 C 172.300662 3.574614 172.723717 3.722684 173.165575 3.914234 L 172.579173 5.325593 C 172.122038 5.138744 171.744814 5.008302 171.44515 4.933092 C 171.146661 4.859057 170.852872 4.822628 170.563784 4.822628 C 170.219464 4.822628 169.95623 4.902538 169.772906 5.062359 C 169.589582 5.22218 169.496745 5.431357 169.496745 5.689891 C 169.496745 5.849712 169.534349 5.989555 169.608384 6.108246 C 169.682419 6.228112 169.801109 6.343277 169.963281 6.453741 C 170.125452 6.565381 170.508552 6.765157 171.114931 7.054245 C 171.915211 7.437345 172.464008 7.82162 172.761322 8.205895 C 173.057461 8.591346 173.206705 9.062583 173.206705 9.620781 Z M 181.636084 12.000467 L 176.702788 12.000467 L 176.702788 3.433596 L 181.636084 3.433596 L 181.636084 4.92134 L 178.519576 4.92134 L 178.519576 6.802762 L 181.419855 6.802762 L 181.419855 8.290506 L 178.519576 8.290506 L 178.519576 10.499796 L 181.636084 10.499796 Z M 187.183985 7.236393 L 187.770386 7.236393 C 188.343862 7.236393 188.768092 7.141206 189.041903 6.949656 C 189.314539 6.758106 189.452032 6.457267 189.452032 6.047138 C 189.452032 5.640535 189.312188 5.351447 189.032502 5.179874 C 188.75399 5.008302 188.320358 4.92134 187.735132 4.92134 L 187.183985 4.92134 Z M 187.183985 8.712387 L 187.183985 12.000467 L 185.367197 12.000467 L 185.367197 3.433596 L 187.863224 3.433596 C 189.027801 3.433596 189.889189 3.645123 190.447387 4.069354 C 191.00676 4.493584 191.285272 5.136394 191.285272 6.000132 C 191.285272 6.504273 191.146603 6.952006 190.869267 7.344508 C 190.591931 7.737009 190.199429 8.044899 189.691763 8.267003 C 190.980907 10.19308 191.821142 11.437568 192.211293 12.000467 L 190.195904 12.000467 L 188.151136 8.712387 Z M 200.120078 3.433596 L 201.954493 3.433596 L 199.042462 12.000467 L 197.061153 12.000467 L 194.154997 3.433596 L 195.989412 3.433596 L 197.600548 8.531413 C 197.691035 8.832252 197.783872 9.182448 197.87906 9.583176 C 197.974247 9.983903 198.03418 10.261239 198.057683 10.417535 C 198.101164 10.059113 198.246883 9.429231 198.49719 8.531413 Z M 204.976989 12.000467 L 204.976989 3.433596 L 206.792601 3.433596 L 206.792601 12.000467 Z M 214.532164 4.822628 C 213.848225 4.822628 213.319406 5.078811 212.943356 5.592353 C 212.568482 6.105896 212.381633 6.822739 212.381633 7.740534 C 212.381633 9.650159 213.098477 10.605559 214.532164 10.605559 C 215.133843 10.605559 215.861263 10.45514 216.716775 10.1543 L 216.716775 11.6773 C 216.014033 11.971088 215.229031 12.116807 214.361767 12.116807 C 213.116104 12.116807 212.163054 11.739583 211.502618 10.983959 C 210.842181 10.22716 210.511963 9.142493 210.511963 7.728783 C 210.511963 6.838016 210.674134 6.057714 210.998477 5.387877 C 211.322819 4.718039 211.78818 4.204497 212.395735 3.84725 C 213.003289 3.488828 213.715432 3.310205 214.532164 3.310205 C 215.364173 3.310205 216.199708 3.511156 217.039943 3.914234 L 216.453541 5.390227 C 216.132724 5.238632 215.810732 5.10584 215.486389 4.99185 C 215.162047 4.879035 214.844755 4.822628 214.532164 4.822628 Z M 225.417614 12.000467 L 220.483143 12.000467 L 220.483143 3.433596 L 225.417614 3.433596 L 225.417614 4.92134 L 222.299931 4.92134 L 222.299931 6.802762 L 225.200211 6.802762 L 225.200211 8.290506 L 222.299931 8.290506 L 222.299931 10.499796 L 225.417614 10.499796 Z M 234.205414 9.620781 C 234.205414 10.394032 233.926903 11.003937 233.36988 11.44932 C 232.812857 11.894703 232.038431 12.116807 231.046601 12.116807 C 230.132331 12.116807 229.323825 11.945235 228.621083 11.60209 L 228.621083 9.914569 C 229.199259 10.171928 229.688123 10.354077 230.088851 10.458665 C 230.489578 10.564429 230.855051 10.617311 231.187619 10.617311 C 231.585997 10.617311 231.891537 10.540926 232.104239 10.388156 C 232.316942 10.236561 232.423881 10.009756 232.423881 9.708917 C 232.423881 9.54087 232.376875 9.391626 232.282863 9.261184 C 232.18885 9.129566 232.051357 9.003825 231.870384 8.882784 C 231.688235 8.761743 231.318061 8.567843 230.759863 8.302258 C 230.235745 8.056651 229.843243 7.820445 229.582359 7.59364 C 229.3203 7.366836 229.111123 7.103601 228.954827 6.802762 C 228.798532 6.501922 228.720972 6.150551 228.720972 5.747474 C 228.720972 4.990675 228.977155 4.394872 229.490697 3.96124 C 230.004239 3.527608 230.715208 3.310205 231.621251 3.310205 C 232.066634 3.310205 232.490865 3.363087 232.895118 3.46885 C 233.299371 3.574614 233.722426 3.722684 234.164284 3.914234 L 233.577882 5.325593 C 233.120747 5.138744 232.743523 5.008302 232.443859 4.933092 C 232.14537 4.859057 231.851581 4.822628 231.562493 4.822628 C 231.218173 4.822628 230.954939 4.902538 230.771615 5.062359 C 230.588291 5.22218 230.495454 5.431357 230.495454 5.689891 C 230.495454 5.849712 230.533059 5.989555 230.607093 6.108246 C 230.681128 6.228112 230.799819 6.343277 230.96199 6.453741 C 231.124161 6.565381 231.507261 6.765157 232.113641 7.054245 C 232.91392 7.437345 233.462717 7.82162 233.760031 8.205895 C 234.05617 8.591346 234.205414 9.062583 234.205414 9.620781 Z M 234.205414 9.620781 " stroke="#0a1130" stroke-width="0.57" stroke-opacity="1" stroke-miterlimit="4"/><g fill="#0a1130" fill-opacity="1"><g transform="translate(439.126523, 225.553135)"><g><path d="M 31.328125 0 L 24.4375 0 L 20.59375 -14.953125 C 20.445312 -15.484375 20.203125 -16.582031 19.859375 -18.25 C 19.515625 -19.925781 19.316406 -21.050781 19.265625 -21.625 C 19.179688 -20.914062 18.984375 -19.785156 18.671875 -18.234375 C 18.367188 -16.679688 18.128906 -15.578125 17.953125 -14.921875 L 14.125 0 L 7.265625 0 L 0 -28.484375 L 5.9375 -28.484375 L 9.578125 -12.9375 C 10.210938 -10.0625 10.675781 -7.570312 10.96875 -5.46875 C 11.039062 -6.207031 11.21875 -7.351562 11.5 -8.90625 C 11.78125 -10.457031 12.046875 -11.664062 12.296875 -12.53125 L 16.4375 -28.484375 L 22.140625 -28.484375 L 26.296875 -12.53125 C 26.472656 -11.8125 26.695312 -10.71875 26.96875 -9.25 C 27.25 -7.78125 27.457031 -6.519531 27.59375 -5.46875 C 27.726562 -6.488281 27.9375 -7.753906 28.21875 -9.265625 C 28.507812 -10.773438 28.769531 -12 29 -12.9375 L 32.625 -28.484375 L 38.5625 -28.484375 Z M 31.328125 0 "/></g></g></g><g fill="#0a1130" fill-opacity="1"><g transform="translate(484.15242, 225.553135)"><g><path d="M 19.984375 0 L 3.578125 0 L 3.578125 -28.484375 L 19.984375 -28.484375 L 19.984375 -23.53125 L 9.625 -23.53125 L 9.625 -17.28125 L 19.265625 -17.28125 L 19.265625 -12.328125 L 9.625 -12.328125 L 9.625 -4.984375 L 19.984375 -4.984375 Z M 19.984375 0 "/></g></g></g><g fill="#0a1130" fill-opacity="1"><g transform="translate(512.95418, 225.553135)"><g><path d="M 3.578125 -28.484375 L 12.453125 -28.484375 C 16.484375 -28.484375 19.410156 -27.90625 21.234375 -26.75 C 23.066406 -25.601562 23.984375 -23.773438 23.984375 -21.265625 C 23.984375 -19.566406 23.582031 -18.171875 22.78125 -17.078125 C 21.976562 -15.992188 20.914062 -15.335938 19.59375 -15.109375 L 19.59375 -14.921875 C 21.394531 -14.515625 22.695312 -13.757812 23.5 -12.65625 C 24.300781 -11.550781 24.703125 -10.085938 24.703125 -8.265625 C 24.703125 -5.660156 23.757812 -3.628906 21.875 -2.171875 C 20 -0.722656 17.453125 0 14.234375 0 L 3.578125 0 Z M 9.625 -17.203125 L 13.125 -17.203125 C 14.757812 -17.203125 15.941406 -17.453125 16.671875 -17.953125 C 17.410156 -18.460938 17.78125 -19.300781 17.78125 -20.46875 C 17.78125 -21.5625 17.378906 -22.34375 16.578125 -22.8125 C 15.785156 -23.289062 14.523438 -23.53125 12.796875 -23.53125 L 9.625 -23.53125 Z M 9.625 -12.40625 L 9.625 -4.984375 L 13.5625 -4.984375 C 15.21875 -4.984375 16.441406 -5.300781 17.234375 -5.9375 C 18.023438 -6.570312 18.421875 -7.546875 18.421875 -8.859375 C 18.421875 -11.222656 16.734375 -12.40625 13.359375 -12.40625 Z M 9.625 -12.40625 "/></g></g></g><g fill="#0a1130" fill-opacity="1"><g transform="translate(546.216116, 225.553135)"><g/></g></g><g fill="#0a1130" fill-opacity="1"><g transform="translate(563.03967, 225.553135)"><g><path d="M 27.203125 -14.515625 C 27.203125 -9.828125 25.867188 -6.234375 23.203125 -3.734375 C 20.535156 -1.242188 16.679688 0 11.640625 0 L 3.578125 0 L 3.578125 -28.484375 L 12.53125 -28.484375 C 17.175781 -28.484375 20.78125 -27.253906 23.34375 -24.796875 C 25.914062 -22.335938 27.203125 -18.910156 27.203125 -14.515625 Z M 20.9375 -14.359375 C 20.9375 -20.472656 18.234375 -23.53125 12.828125 -23.53125 L 9.625 -23.53125 L 9.625 -4.984375 L 12.21875 -4.984375 C 18.03125 -4.984375 20.9375 -8.109375 20.9375 -14.359375 Z M 20.9375 -14.359375 "/></g></g></g><g fill="#0a1130" fill-opacity="1"><g transform="translate(599.028352, 225.553135)"><g><path d="M 19.984375 0 L 3.578125 0 L 3.578125 -28.484375 L 19.984375 -28.484375 L 19.984375 -23.53125 L 9.625 -23.53125 L 9.625 -17.28125 L 19.265625 -17.28125 L 19.265625 -12.328125 L 9.625 -12.328125 L 9.625 -4.984375 L 19.984375 -4.984375 Z M 19.984375 0 "/></g></g></g><g fill="#0a1130" fill-opacity="1"><g transform="translate(627.830112, 225.553135)"><g><path d="M 20.390625 -7.90625 C 20.390625 -5.332031 19.460938 -3.304688 17.609375 -1.828125 C 15.765625 -0.347656 13.191406 0.390625 9.890625 0.390625 C 6.859375 0.390625 4.171875 -0.179688 1.828125 -1.328125 L 1.828125 -6.9375 C 3.753906 -6.082031 5.378906 -5.476562 6.703125 -5.125 C 8.035156 -4.769531 9.253906 -4.59375 10.359375 -4.59375 C 11.679688 -4.59375 12.695312 -4.84375 13.40625 -5.34375 C 14.113281 -5.851562 14.46875 -6.609375 14.46875 -7.609375 C 14.46875 -8.171875 14.3125 -8.671875 14 -9.109375 C 13.6875 -9.546875 13.226562 -9.960938 12.625 -10.359375 C 12.019531 -10.765625 10.789062 -11.410156 8.9375 -12.296875 C 7.195312 -13.109375 5.890625 -13.890625 5.015625 -14.640625 C 4.148438 -15.398438 3.457031 -16.28125 2.9375 -17.28125 C 2.414062 -18.28125 2.15625 -19.445312 2.15625 -20.78125 C 2.15625 -23.300781 3.007812 -25.28125 4.71875 -26.71875 C 6.425781 -28.164062 8.785156 -28.890625 11.796875 -28.890625 C 13.285156 -28.890625 14.703125 -28.710938 16.046875 -28.359375 C 17.390625 -28.003906 18.789062 -27.507812 20.25 -26.875 L 18.3125 -22.1875 C 16.789062 -22.8125 15.53125 -23.242188 14.53125 -23.484375 C 13.539062 -23.734375 12.566406 -23.859375 11.609375 -23.859375 C 10.460938 -23.859375 9.582031 -23.59375 8.96875 -23.0625 C 8.363281 -22.53125 8.0625 -21.835938 8.0625 -20.984375 C 8.0625 -20.441406 8.179688 -19.972656 8.421875 -19.578125 C 8.671875 -19.179688 9.066406 -18.796875 9.609375 -18.421875 C 10.148438 -18.054688 11.425781 -17.394531 13.4375 -16.4375 C 16.101562 -15.164062 17.925781 -13.890625 18.90625 -12.609375 C 19.894531 -11.328125 20.390625 -9.757812 20.390625 -7.90625 Z M 20.390625 -7.90625 "/></g></g></g><g fill="#0a1130" fill-opacity="1"><g transform="translate(656.261813, 225.553135)"><g><path d="M 3.578125 0 L 3.578125 -28.484375 L 9.625 -28.484375 L 9.625 0 Z M 3.578125 0 "/></g></g></g><g fill="#0a1130" fill-opacity="1"><g transform="translate(675.928974, 225.553135)"><g><path d="M 14.390625 -15.984375 L 25.6875 -15.984375 L 25.6875 -1.234375 C 23.851562 -0.628906 22.128906 -0.207031 20.515625 0.03125 C 18.898438 0.269531 17.25 0.390625 15.5625 0.390625 C 11.257812 0.390625 7.972656 -0.867188 5.703125 -3.390625 C 3.441406 -5.921875 2.3125 -9.550781 2.3125 -14.28125 C 2.3125 -18.875 3.625 -22.457031 6.25 -25.03125 C 8.882812 -27.601562 12.535156 -28.890625 17.203125 -28.890625 C 20.117188 -28.890625 22.9375 -28.300781 25.65625 -27.125 L 23.640625 -22.296875 C 21.566406 -23.335938 19.40625 -23.859375 17.15625 -23.859375 C 14.550781 -23.859375 12.460938 -22.976562 10.890625 -21.21875 C 9.316406 -19.46875 8.53125 -17.113281 8.53125 -14.15625 C 8.53125 -11.070312 9.160156 -8.710938 10.421875 -7.078125 C 11.691406 -5.453125 13.535156 -4.640625 15.953125 -4.640625 C 17.210938 -4.640625 18.492188 -4.769531 19.796875 -5.03125 L 19.796875 -10.96875 L 14.390625 -10.96875 Z M 14.390625 -15.984375 "/></g></g></g><g fill="#0a1130" fill-opacity="1"><g transform="translate(711.274923, 225.553135)"><g><path d="M 28.84375 0 L 21.171875 0 L 8.78125 -21.546875 L 8.609375 -21.546875 C 8.859375 -17.734375 8.984375 -15.019531 8.984375 -13.40625 L 8.984375 0 L 3.578125 0 L 3.578125 -28.484375 L 11.203125 -28.484375 L 23.5625 -7.140625 L 23.703125 -7.140625 C 23.503906 -10.847656 23.40625 -13.46875 23.40625 -15 L 23.40625 -28.484375 L 28.84375 -28.484375 Z M 28.84375 0 "/></g></g></g><g fill="#0a1130" fill-opacity="1"><g transform="translate(750.165642, 225.553135)"><g/></g></g><g fill="#0a1130" fill-opacity="1"><g transform="translate(766.989197, 225.553135)"><g><path d="M 20.390625 -7.90625 C 20.390625 -5.332031 19.460938 -3.304688 17.609375 -1.828125 C 15.765625 -0.347656 13.191406 0.390625 9.890625 0.390625 C 6.859375 0.390625 4.171875 -0.179688 1.828125 -1.328125 L 1.828125 -6.9375 C 3.753906 -6.082031 5.378906 -5.476562 6.703125 -5.125 C 8.035156 -4.769531 9.253906 -4.59375 10.359375 -4.59375 C 11.679688 -4.59375 12.695312 -4.84375 13.40625 -5.34375 C 14.113281 -5.851562 14.46875 -6.609375 14.46875 -7.609375 C 14.46875 -8.171875 14.3125 -8.671875 14 -9.109375 C 13.6875 -9.546875 13.226562 -9.960938 12.625 -10.359375 C 12.019531 -10.765625 10.789062 -11.410156 8.9375 -12.296875 C 7.195312 -13.109375 5.890625 -13.890625 5.015625 -14.640625 C 4.148438 -15.398438 3.457031 -16.28125 2.9375 -17.28125 C 2.414062 -18.28125 2.15625 -19.445312 2.15625 -20.78125 C 2.15625 -23.300781 3.007812 -25.28125 4.71875 -26.71875 C 6.425781 -28.164062 8.785156 -28.890625 11.796875 -28.890625 C 13.285156 -28.890625 14.703125 -28.710938 16.046875 -28.359375 C 17.390625 -28.003906 18.789062 -27.507812 20.25 -26.875 L 18.3125 -22.1875 C 16.789062 -22.8125 15.53125 -23.242188 14.53125 -23.484375 C 13.539062 -23.734375 12.566406 -23.859375 11.609375 -23.859375 C 10.460938 -23.859375 9.582031 -23.59375 8.96875 -23.0625 C 8.363281 -22.53125 8.0625 -21.835938 8.0625 -20.984375 C 8.0625 -20.441406 8.179688 -19.972656 8.421875 -19.578125 C 8.671875 -19.179688 9.066406 -18.796875 9.609375 -18.421875 C 10.148438 -18.054688 11.425781 -17.394531 13.4375 -16.4375 C 16.101562 -15.164062 17.925781 -13.890625 18.90625 -12.609375 C 19.894531 -11.328125 20.390625 -9.757812 20.390625 -7.90625 Z M 20.390625 -7.90625 "/></g></g></g><g fill="#0a1130" fill-opacity="1"><g transform="translate(795.420898, 225.553135)"><g><path d="M 19.984375 0 L 3.578125 0 L 3.578125 -28.484375 L 19.984375 -28.484375 L 19.984375 -23.53125 L 9.625 -23.53125 L 9.625 -17.28125 L 19.265625 -17.28125 L 19.265625 -12.328125 L 9.625 -12.328125 L 9.625 -4.984375 L 19.984375 -4.984375 Z M 19.984375 0 "/></g></g></g><g fill="#0a1130" fill-opacity="1"><g transform="translate(824.222657, 225.553135)"><g><path d="M 9.625 -15.828125 L 11.5625 -15.828125 C 13.476562 -15.828125 14.890625 -16.144531 15.796875 -16.78125 C 16.703125 -17.425781 17.15625 -18.429688 17.15625 -19.796875 C 17.15625 -21.140625 16.691406 -22.097656 15.765625 -22.671875 C 14.835938 -23.242188 13.398438 -23.53125 11.453125 -23.53125 L 9.625 -23.53125 Z M 9.625 -10.921875 L 9.625 0 L 3.578125 0 L 3.578125 -28.484375 L 11.875 -28.484375 C 15.75 -28.484375 18.613281 -27.773438 20.46875 -26.359375 C 22.320312 -24.953125 23.25 -22.816406 23.25 -19.953125 C 23.25 -18.273438 22.785156 -16.78125 21.859375 -15.46875 C 20.941406 -14.164062 19.640625 -13.144531 17.953125 -12.40625 C 22.242188 -6.007812 25.035156 -1.875 26.328125 0 L 19.640625 0 L 12.828125 -10.921875 Z M 9.625 -10.921875 "/></g></g></g><g fill="#0a1130" fill-opacity="1"><g transform="translate(857.017151, 225.553135)"><g><path d="M 19.828125 -28.484375 L 25.921875 -28.484375 L 16.25 0 L 9.65625 0 L 0 -28.484375 L 6.09375 -28.484375 L 11.453125 -11.53125 C 11.753906 -10.53125 12.0625 -9.363281 12.375 -8.03125 C 12.695312 -6.695312 12.894531 -5.773438 12.96875 -5.265625 C 13.113281 -6.453125 13.601562 -8.539062 14.4375 -11.53125 Z M 19.828125 -28.484375 "/></g></g></g><g fill="#0a1130" fill-opacity="1"><g transform="translate(889.402634, 225.553135)"><g><path d="M 3.578125 0 L 3.578125 -28.484375 L 9.625 -28.484375 L 9.625 0 Z M 3.578125 0 "/></g></g></g><g fill="#0a1130" fill-opacity="1"><g transform="translate(909.069795, 225.553135)"><g><path d="M 15.671875 -23.859375 C 13.398438 -23.859375 11.640625 -23.003906 10.390625 -21.296875 C 9.148438 -19.585938 8.53125 -17.207031 8.53125 -14.15625 C 8.53125 -7.8125 10.910156 -4.640625 15.671875 -4.640625 C 17.671875 -4.640625 20.09375 -5.140625 22.9375 -6.140625 L 22.9375 -1.078125 C 20.601562 -0.0976562 17.992188 0.390625 15.109375 0.390625 C 10.972656 0.390625 7.804688 -0.863281 5.609375 -3.375 C 3.410156 -5.882812 2.3125 -9.492188 2.3125 -14.203125 C 2.3125 -17.160156 2.847656 -19.753906 3.921875 -21.984375 C 5.003906 -24.210938 6.554688 -25.921875 8.578125 -27.109375 C 10.597656 -28.296875 12.960938 -28.890625 15.671875 -28.890625 C 18.441406 -28.890625 21.222656 -28.21875 24.015625 -26.875 L 22.0625 -21.96875 C 21 -22.476562 19.925781 -22.921875 18.84375 -23.296875 C 17.769531 -23.671875 16.710938 -23.859375 15.671875 -23.859375 Z M 15.671875 -23.859375 "/></g></g></g><g fill="#0a1130" fill-opacity="1"><g transform="translate(940.948882, 225.553135)"><g><path d="M 19.984375 0 L 3.578125 0 L 3.578125 -28.484375 L 19.984375 -28.484375 L 19.984375 -23.53125 L 9.625 -23.53125 L 9.625 -17.28125 L 19.265625 -17.28125 L 19.265625 -12.328125 L 9.625 -12.328125 L 9.625 -4.984375 L 19.984375 -4.984375 Z M 19.984375 0 "/></g></g></g><g fill="#0a1130" fill-opacity="1"><g transform="translate(969.750641, 225.553135)"><g><path d="M 20.390625 -7.90625 C 20.390625 -5.332031 19.460938 -3.304688 17.609375 -1.828125 C 15.765625 -0.347656 13.191406 0.390625 9.890625 0.390625 C 6.859375 0.390625 4.171875 -0.179688 1.828125 -1.328125 L 1.828125 -6.9375 C 3.753906 -6.082031 5.378906 -5.476562 6.703125 -5.125 C 8.035156 -4.769531 9.253906 -4.59375 10.359375 -4.59375 C 11.679688 -4.59375 12.695312 -4.84375 13.40625 -5.34375 C 14.113281 -5.851562 14.46875 -6.609375 14.46875 -7.609375 C 14.46875 -8.171875 14.3125 -8.671875 14 -9.109375 C 13.6875 -9.546875 13.226562 -9.960938 12.625 -10.359375 C 12.019531 -10.765625 10.789062 -11.410156 8.9375 -12.296875 C 7.195312 -13.109375 5.890625 -13.890625 5.015625 -14.640625 C 4.148438 -15.398438 3.457031 -16.28125 2.9375 -17.28125 C 2.414062 -18.28125 2.15625 -19.445312 2.15625 -20.78125 C 2.15625 -23.300781 3.007812 -25.28125 4.71875 -26.71875 C 6.425781 -28.164062 8.785156 -28.890625 11.796875 -28.890625 C 13.285156 -28.890625 14.703125 -28.710938 16.046875 -28.359375 C 17.390625 -28.003906 18.789062 -27.507812 20.25 -26.875 L 18.3125 -22.1875 C 16.789062 -22.8125 15.53125 -23.242188 14.53125 -23.484375 C 13.539062 -23.734375 12.566406 -23.859375 11.609375 -23.859375 C 10.460938 -23.859375 9.582031 -23.59375 8.96875 -23.0625 C 8.363281 -22.53125 8.0625 -21.835938 8.0625 -20.984375 C 8.0625 -20.441406 8.179688 -19.972656 8.421875 -19.578125 C 8.671875 -19.179688 9.066406 -18.796875 9.609375 -18.421875 C 10.148438 -18.054688 11.425781 -17.394531 13.4375 -16.4375 C 16.101562 -15.164062 17.925781 -13.890625 18.90625 -12.609375 C 19.894531 -11.328125 20.390625 -9.757812 20.390625 -7.90625 Z M 20.390625 -7.90625 "/></g></g></g></svg>