<svg xmlns="http://www.w3.org/2000/svg" xmlns:xlink="http://www.w3.org/1999/xlink" width="294" zoomAndPan="magnify" viewBox="0 0 220.5 110.249996" height="147" preserveAspectRatio="xMidYMid meet" version="1.0"><defs><clipPath id="09af1f1d61"><path d="M 3 24.734375 L 172 24.734375 L 172 85 L 3 85 Z M 3 24.734375 " clip-rule="nonzero"/></clipPath></defs><path fill="#83cd29" d="M 199.125 46.09375 C 198.609375 46.09375 198.105469 46.203125 197.660156 46.453125 L 183.59375 54.613281 C 182.683594 55.140625 182.132812 56.136719 182.132812 57.195312 L 182.132812 73.488281 C 182.132812 74.546875 182.683594 75.539062 183.59375 76.066406 L 187.269531 78.195312 C 189.054688 79.078125 189.710938 79.0625 190.523438 79.0625 C 193.167969 79.0625 194.675781 77.453125 194.675781 74.652344 L 194.675781 58.578125 C 194.675781 58.351562 194.480469 58.1875 194.257812 58.1875 L 192.496094 58.1875 C 192.269531 58.1875 192.078125 58.355469 192.078125 58.578125 L 192.078125 74.660156 C 192.078125 75.902344 190.789062 77.148438 188.703125 76.101562 L 184.882812 73.851562 C 184.75 73.777344 184.644531 73.640625 184.644531 73.492188 L 184.644531 57.199219 C 184.644531 57.042969 184.746094 56.886719 184.882812 56.808594 L 198.921875 48.675781 C 199.050781 48.601562 199.210938 48.601562 199.339844 48.675781 L 213.375 56.808594 C 213.511719 56.890625 213.617188 57.039062 213.617188 57.199219 L 213.617188 73.492188 C 213.617188 73.648438 213.539062 73.804688 213.40625 73.878906 L 199.339844 82.011719 C 199.214844 82.085938 199.050781 82.085938 198.921875 82.011719 L 195.308594 79.851562 C 195.199219 79.789062 195.054688 79.792969 194.949219 79.851562 C 193.953125 80.421875 193.765625 80.484375 192.828125 80.8125 C 192.597656 80.894531 192.246094 81.019531 192.949219 81.414062 L 197.667969 84.207031 C 198.117188 84.46875 198.617188 84.597656 199.132812 84.597656 C 199.652344 84.597656 200.144531 84.472656 200.59375 84.207031 L 214.660156 76.074219 C 215.570312 75.542969 216.125 74.554688 216.125 73.496094 L 216.125 57.203125 C 216.125 56.144531 215.570312 55.152344 214.660156 54.621094 L 200.59375 46.460938 C 200.152344 46.207031 199.648438 46.101562 199.132812 46.101562 Z M 202.890625 57.734375 C 198.882812 57.734375 196.496094 59.449219 196.496094 62.296875 C 196.496094 65.382812 198.867188 66.234375 202.710938 66.617188 C 207.308594 67.070312 207.667969 67.746094 207.667969 68.65625 C 207.667969 70.234375 206.417969 70.90625 203.457031 70.90625 C 199.738281 70.90625 198.921875 69.976562 198.648438 68.113281 C 198.617188 67.914062 198.464844 67.753906 198.261719 67.753906 L 196.433594 67.753906 C 196.320312 67.757812 196.222656 67.796875 196.140625 67.878906 C 196.058594 67.960938 196.019531 68.058594 196.015625 68.171875 C 196.015625 70.550781 197.304688 73.363281 203.453125 73.363281 C 207.902344 73.363281 210.472656 71.613281 210.472656 68.53125 C 210.472656 65.488281 208.398438 64.667969 204.078125 64.09375 C 199.722656 63.507812 199.300781 63.230469 199.300781 62.203125 C 199.300781 61.355469 199.652344 60.222656 202.886719 60.222656 C 205.773438 60.222656 206.839844 60.847656 207.277344 62.800781 C 207.3125 62.984375 207.476562 63.136719 207.664062 63.136719 L 209.492188 63.136719 C 209.601562 63.136719 209.710938 63.066406 209.789062 62.984375 C 209.867188 62.898438 209.917969 62.800781 209.910156 62.683594 C 209.625 59.316406 207.390625 57.734375 202.890625 57.734375 Z M 202.890625 57.734375 " fill-opacity="1" fill-rule="nonzero"/><g clip-path="url(#09af1f1d61)"><path fill="#404137" d="M 116.425781 24.738281 C 116.265625 24.738281 116.117188 24.777344 115.976562 24.855469 C 115.679688 25.03125 115.53125 25.292969 115.527344 25.636719 L 115.527344 48.589844 C 115.527344 48.816406 115.425781 49.015625 115.230469 49.128906 C 115.019531 49.253906 114.8125 49.253906 114.601562 49.128906 L 110.871094 46.96875 C 110.59375 46.808594 110.292969 46.726562 109.972656 46.726562 C 109.652344 46.726562 109.355469 46.808594 109.078125 46.96875 L 94.175781 55.609375 C 93.617188 55.933594 93.277344 56.554688 93.277344 57.199219 L 93.277344 74.480469 C 93.277344 74.804688 93.359375 75.105469 93.519531 75.382812 C 93.679688 75.660156 93.898438 75.882812 94.175781 76.042969 L 109.078125 84.683594 C 109.355469 84.84375 109.652344 84.925781 109.972656 84.925781 C 110.292969 84.925781 110.59375 84.84375 110.871094 84.683594 L 125.773438 76.042969 C 126.050781 75.882812 126.269531 75.660156 126.429688 75.382812 C 126.589844 75.105469 126.671875 74.804688 126.667969 74.480469 L 126.667969 31.398438 C 126.667969 30.742188 126.3125 30.125 125.746094 29.808594 L 116.875 24.824219 C 116.734375 24.746094 116.578125 24.734375 116.425781 24.734375 Z M 20.550781 46.308594 C 20.269531 46.320312 20 46.371094 19.746094 46.519531 L 4.84375 55.160156 C 4.566406 55.320312 4.347656 55.539062 4.1875 55.820312 C 4.027344 56.097656 3.945312 56.398438 3.945312 56.71875 L 3.976562 79.914062 C 3.976562 80.234375 4.144531 80.535156 4.425781 80.691406 C 4.703125 80.859375 5.046875 80.859375 5.320312 80.691406 L 14.160156 75.59375 C 14.722656 75.257812 15.085938 74.675781 15.085938 74.03125 L 15.085938 63.199219 C 15.085938 62.554688 15.425781 61.960938 15.984375 61.640625 L 19.746094 59.449219 C 20.023438 59.289062 20.324219 59.207031 20.644531 59.210938 C 20.964844 59.207031 21.261719 59.289062 21.539062 59.449219 L 25.300781 61.640625 C 25.859375 61.960938 26.195312 62.554688 26.195312 63.199219 L 26.195312 74.03125 C 26.195312 74.675781 26.570312 75.261719 27.121094 75.589844 L 35.964844 80.691406 C 36.242188 80.855469 36.582031 80.855469 36.859375 80.691406 C 37.132812 80.53125 37.308594 80.234375 37.308594 79.910156 L 37.335938 56.71875 C 37.339844 56.394531 37.257812 56.09375 37.097656 55.816406 C 36.9375 55.539062 36.71875 55.316406 36.441406 55.15625 L 21.539062 46.519531 C 21.285156 46.371094 21.019531 46.320312 20.730469 46.308594 Z M 154.472656 46.519531 C 154.152344 46.519531 153.855469 46.597656 153.578125 46.757812 L 138.671875 55.402344 C 138.117188 55.722656 137.777344 56.316406 137.777344 56.960938 L 137.777344 74.242188 C 137.777344 74.890625 138.140625 75.480469 138.703125 75.800781 L 153.484375 84.265625 C 154.03125 84.578125 154.699219 84.601562 155.25 84.296875 L 164.207031 79.285156 C 164.492188 79.125 164.683594 78.832031 164.6875 78.503906 C 164.6875 78.179688 164.519531 77.886719 164.238281 77.726562 L 149.242188 69.085938 C 148.964844 68.921875 148.765625 68.597656 148.765625 68.273438 L 148.765625 62.871094 C 148.765625 62.546875 148.964844 62.25 149.242188 62.089844 L 153.902344 59.390625 C 154.179688 59.230469 154.519531 59.230469 154.800781 59.390625 L 159.46875 62.089844 C 159.769531 62.261719 159.917969 62.523438 159.917969 62.871094 L 159.917969 67.128906 C 159.917969 67.476562 160.066406 67.738281 160.367188 67.910156 C 160.644531 68.070312 160.984375 68.074219 161.261719 67.910156 L 170.191406 62.6875 C 170.746094 62.367188 171.085938 61.773438 171.085938 61.128906 L 171.085938 56.960938 C 171.085938 56.636719 171.007812 56.335938 170.847656 56.058594 C 170.6875 55.78125 170.46875 55.5625 170.191406 55.398438 L 155.378906 46.757812 C 155.101562 46.597656 154.800781 46.515625 154.480469 46.519531 Z M 109.910156 59.421875 C 109.996094 59.421875 110.074219 59.441406 110.152344 59.480469 L 115.257812 62.449219 C 115.394531 62.53125 115.496094 62.679688 115.496094 62.839844 L 115.496094 68.78125 C 115.496094 68.941406 115.398438 69.089844 115.257812 69.171875 L 110.152344 72.140625 C 110.011719 72.222656 109.84375 72.222656 109.703125 72.140625 L 104.59375 69.171875 C 104.457031 69.089844 104.355469 68.941406 104.355469 68.78125 L 104.355469 62.84375 C 104.355469 62.683594 104.457031 62.535156 104.59375 62.453125 L 109.703125 59.484375 C 109.773438 59.441406 109.832031 59.421875 109.910156 59.421875 Z M 109.910156 59.421875 " fill-opacity="1" fill-rule="nonzero"/></g><path fill="#83cd29" d="M 65.320312 46.429688 C 65 46.429688 64.703125 46.507812 64.425781 46.667969 L 49.519531 55.28125 C 48.964844 55.601562 48.625 56.222656 48.625 56.871094 L 48.625 74.152344 C 48.625 74.472656 48.703125 74.773438 48.863281 75.054688 C 49.023438 75.332031 49.242188 75.550781 49.519531 75.710938 L 64.425781 84.351562 C 64.703125 84.515625 65 84.59375 65.320312 84.59375 C 65.640625 84.59375 65.941406 84.515625 66.214844 84.351562 L 81.121094 75.710938 C 81.398438 75.550781 81.617188 75.332031 81.777344 75.050781 C 81.9375 74.773438 82.015625 74.472656 82.015625 74.152344 L 82.015625 56.871094 C 82.015625 56.222656 81.675781 55.601562 81.121094 55.28125 L 66.214844 46.667969 C 65.9375 46.507812 65.640625 46.429688 65.320312 46.429688 Z M 154.445312 61.851562 C 154.382812 61.851562 154.320312 61.851562 154.265625 61.878906 L 151.398438 63.558594 C 151.28125 63.625 151.21875 63.726562 151.21875 63.859375 L 151.21875 67.160156 C 151.21875 67.285156 151.289062 67.398438 151.398438 67.460938 L 154.265625 69.109375 C 154.375 69.179688 154.484375 69.179688 154.59375 69.109375 L 157.460938 67.460938 C 157.566406 67.398438 157.640625 67.285156 157.640625 67.160156 L 157.640625 63.859375 C 157.640625 63.734375 157.566406 63.621094 157.460938 63.558594 L 154.59375 61.878906 C 154.539062 61.847656 154.503906 61.851562 154.441406 61.851562 Z M 154.445312 61.851562 " fill-opacity="1" fill-rule="nonzero"/></svg>