<svg xmlns="http://www.w3.org/2000/svg" xmlns:xlink="http://www.w3.org/1999/xlink" width="294" zoomAndPan="magnify" viewBox="0 0 220.5 110.249996" height="147" preserveAspectRatio="xMidYMid meet" version="1.0"><defs><clipPath id="d0c78fe450"><path d="M 2.398438 20 L 103 20 L 103 90 L 2.398438 90 Z M 2.398438 20 " clip-rule="nonzero"/></clipPath><clipPath id="cb6a170807"><path d="M 2.398438 16.855469 L 87 16.855469 L 87 92.839844 L 2.398438 92.839844 Z M 2.398438 16.855469 " clip-rule="nonzero"/></clipPath><clipPath id="7efb0ec7cf"><path d="M 2.398438 16.855469 L 88 16.855469 L 88 92.839844 L 2.398438 92.839844 Z M 2.398438 16.855469 " clip-rule="nonzero"/></clipPath></defs><path fill="#00d8ff" d="M 51.347656 54.78125 C 51.347656 55.261719 51.300781 55.734375 51.210938 56.203125 C 51.117188 56.675781 50.980469 57.132812 50.796875 57.574219 C 50.613281 58.015625 50.390625 58.4375 50.125 58.835938 C 49.859375 59.234375 49.558594 59.601562 49.222656 59.941406 C 48.882812 60.277344 48.515625 60.582031 48.121094 60.847656 C 47.722656 61.113281 47.304688 61.339844 46.863281 61.523438 C 46.421875 61.703125 45.96875 61.84375 45.5 61.9375 C 45.035156 62.03125 44.5625 62.078125 44.082031 62.078125 C 43.605469 62.078125 43.132812 62.03125 42.667969 61.9375 C 42.199219 61.84375 41.746094 61.703125 41.304688 61.523438 C 40.863281 61.339844 40.445312 61.113281 40.046875 60.847656 C 39.652344 60.582031 39.285156 60.277344 38.945312 59.941406 C 38.609375 59.601562 38.308594 59.234375 38.042969 58.835938 C 37.777344 58.4375 37.554688 58.015625 37.371094 57.574219 C 37.1875 57.132812 37.050781 56.675781 36.957031 56.203125 C 36.863281 55.734375 36.820312 55.261719 36.820312 54.78125 C 36.820312 54.304688 36.863281 53.828125 36.957031 53.359375 C 37.050781 52.890625 37.1875 52.433594 37.371094 51.988281 C 37.554688 51.546875 37.777344 51.128906 38.042969 50.730469 C 38.308594 50.332031 38.609375 49.960938 38.945312 49.625 C 39.285156 49.285156 39.652344 48.980469 40.046875 48.714844 C 40.445312 48.449219 40.863281 48.226562 41.304688 48.042969 C 41.746094 47.859375 42.199219 47.71875 42.667969 47.625 C 43.132812 47.535156 43.605469 47.488281 44.082031 47.488281 C 44.5625 47.488281 45.035156 47.535156 45.5 47.625 C 45.96875 47.71875 46.421875 47.859375 46.863281 48.042969 C 47.304688 48.226562 47.722656 48.449219 48.121094 48.714844 C 48.515625 48.980469 48.882812 49.285156 49.222656 49.625 C 49.558594 49.960938 49.859375 50.332031 50.125 50.730469 C 50.390625 51.128906 50.613281 51.546875 50.796875 51.988281 C 50.980469 52.433594 51.117188 52.890625 51.210938 53.359375 C 51.300781 53.828125 51.347656 54.304688 51.347656 54.78125 Z M 51.347656 54.78125 " fill-opacity="1" fill-rule="nonzero"/><g clip-path="url(#d0c78fe450)"><path stroke-linecap="butt" transform="matrix(0.144821, 0, 0, 0.145417, 5.050167, 20.226216)" fill="none" stroke-linejoin="miter" d="M 269.518046 135.630269 C 336.896497 135.630269 399.446788 145.300706 446.649466 161.525552 C 503.48149 181.108188 538.438444 210.764197 538.438444 237.626524 C 538.438444 265.617068 501.404572 297.126577 440.337794 317.353909 C 394.214034 332.638573 333.470931 340.616684 269.518046 340.616684 C 203.973757 340.616684 141.908979 333.148958 95.218788 317.192735 C 36.174981 297.019128 0.624622 265.079821 0.624622 237.626524 C 0.624622 210.979095 33.990171 181.564847 90.03998 162.009074 C 137.377522 145.515605 201.519218 135.630269 269.518046 135.630269 Z M 269.518046 135.630269 " stroke="#00d8ff" stroke-width="24" stroke-opacity="1" stroke-miterlimit="4"/></g><g clip-path="url(#cb6a170807)"><path stroke-linecap="butt" transform="matrix(0.144821, 0, 0, 0.145417, 5.050167, 20.226216)" fill="none" stroke-linejoin="miter" d="M 180.75004 186.910451 C 214.385319 128.565477 254.008595 79.19252 291.662846 46.447344 C 337.004389 6.986586 380.161123 -8.486115 403.438786 4.945049 C 427.687476 18.913459 436.480661 66.755263 423.506667 129.747419 C 413.68851 177.347462 390.275982 233.946385 358.313026 289.336503 C 325.567855 346.123461 288.075442 396.167976 250.933678 428.617667 C 203.973757 469.663302 158.551295 484.545031 134.761145 470.818382 C 111.672292 457.521531 102.852135 413.897112 113.938021 355.579 C 123.270665 306.313493 146.764112 245.846396 180.723067 186.937313 Z M 180.75004 186.910451 " stroke="#00d8ff" stroke-width="24" stroke-opacity="1" stroke-miterlimit="4"/></g><g clip-path="url(#7efb0ec7cf)"><path stroke-linecap="butt" transform="matrix(0.144821, 0, 0, 0.145417, 5.050167, 20.226216)" fill="none" stroke-linejoin="miter" d="M 180.830958 289.470814 C 147.087787 231.206427 124.106826 172.189895 114.504453 123.219874 C 102.960027 64.230204 111.132833 19.128357 134.383524 5.670332 C 158.60524 -8.351803 204.432297 7.899905 252.525083 50.611004 C 288.857658 82.872659 326.215206 131.439746 358.232107 186.776139 C 391.085171 243.509373 415.684509 300.96789 425.25991 349.346941 C 437.397741 410.566183 427.579584 457.333494 403.816408 471.087006 C 380.754528 484.437582 338.568821 470.307998 293.577926 431.599385 C 255.573027 398.881071 214.897805 348.326172 180.803985 289.470814 Z M 180.830958 289.470814 " stroke="#00d8ff" stroke-width="24" stroke-opacity="1" stroke-miterlimit="4"/></g><path fill="#00d8ff" d="M 124.730469 73.421875 L 115.824219 59.910156 C 120.324219 59.511719 124.378906 56.238281 124.378906 50.257812 C 124.378906 44.167969 120.078125 40.273438 114.042969 40.273438 L 100.789062 40.273438 L 100.789062 73.394531 L 104.894531 73.394531 L 104.894531 60.234375 L 111.472656 60.234375 L 119.882812 73.394531 Z M 113.550781 56.636719 L 104.898438 56.636719 L 104.898438 43.972656 L 113.550781 43.972656 C 117.460938 43.972656 120.128906 46.554688 120.128906 50.28125 C 120.128906 54.003906 117.460938 56.640625 113.550781 56.640625 Z M 140.011719 74.015625 C 143.921875 74.015625 147.132812 72.722656 149.507812 70.339844 L 147.726562 67.90625 C 145.847656 69.84375 143.078125 70.933594 140.359375 70.933594 C 135.214844 70.933594 132.050781 67.160156 131.753906 62.644531 L 151.089844 62.644531 L 151.089844 61.699219 C 151.089844 54.5 146.835938 48.835938 139.613281 48.835938 C 132.789062 48.835938 127.84375 54.449219 127.84375 61.402344 C 127.84375 68.902344 132.9375 73.996094 140.011719 73.996094 Z M 147.433594 59.910156 L 131.753906 59.910156 C 131.953125 56.238281 134.472656 51.914062 139.570312 51.914062 C 145.011719 51.914062 147.382812 56.332031 147.433594 59.910156 Z M 175.722656 73.417969 L 175.722656 56.929688 C 175.722656 51.121094 171.523438 48.835938 166.476562 48.835938 C 162.566406 48.835938 159.503906 50.125 156.929688 52.808594 L 158.664062 55.390625 C 160.789062 53.105469 163.113281 52.0625 165.984375 52.0625 C 169.445312 52.0625 172.019531 53.898438 172.019531 57.128906 L 172.019531 61.449219 C 170.089844 59.210938 167.367188 58.167969 164.105469 58.167969 C 160.046875 58.167969 155.742188 60.703125 155.742188 66.066406 C 155.742188 71.28125 160.042969 74.011719 164.105469 74.011719 C 167.320312 74.011719 170.039062 72.871094 172.019531 70.6875 L 172.019531 73.414062 Z M 165.4375 71.332031 C 161.976562 71.332031 159.554688 69.148438 159.554688 66.117188 C 159.554688 63.039062 161.976562 60.855469 165.4375 60.855469 C 168.0625 60.855469 170.582031 61.847656 172.019531 63.835938 L 172.019531 68.355469 C 170.582031 70.339844 168.0625 71.335938 165.4375 71.335938 Z M 193.660156 74.015625 C 198.011719 74.015625 200.582031 72.226562 202.414062 69.84375 L 199.941406 67.558594 C 198.359375 69.695312 196.332031 70.6875 193.878906 70.6875 C 188.785156 70.6875 185.621094 66.714844 185.621094 61.402344 C 185.621094 56.089844 188.785156 52.167969 193.878906 52.167969 C 196.351562 52.167969 198.378906 53.109375 199.941406 55.292969 L 202.414062 53.011719 C 200.585938 50.625 198.011719 48.839844 193.660156 48.839844 C 186.539062 48.839844 181.738281 54.304688 181.738281 61.402344 C 181.738281 68.554688 186.539062 73.996094 193.660156 73.996094 Z M 213.644531 74.015625 C 215.816406 74.015625 217.15625 73.367188 218.097656 72.476562 L 217.007812 69.695312 C 216.511719 70.242188 215.546875 70.6875 214.484375 70.6875 C 212.855469 70.6875 212.0625 69.398438 212.0625 67.609375 L 212.0625 52.710938 L 216.910156 52.710938 L 216.910156 49.433594 L 212.0625 49.433594 L 212.0625 42.878906 L 208.351562 42.878906 L 208.351562 49.433594 L 204.394531 49.433594 L 204.394531 52.710938 L 208.351562 52.710938 L 208.351562 68.40625 C 208.351562 71.984375 210.132812 74.019531 213.644531 74.019531 Z M 213.644531 74.015625 " fill-opacity="1" fill-rule="evenodd"/></svg>